<?xml version="1.0"?>
<svg xmlns="http://www.w3.org/2000/svg" xmlns:xlink="http://www.w3.org/1999/xlink" xmlns:svgjs="http://svgjs.com/svgjs" version="1.1" width="512" height="512" x="0" y="0" viewBox="0 0 512 512" style="enable-background:new 0 0 512 512" xml:space="preserve" class=""><g><g xmlns="http://www.w3.org/2000/svg"><path d="m7.512 40.861h497.004c4.138 0 7.483 3.375 7.483 7.514v91.049c0 4.139-3.345 7.482-7.483 7.482-4.139 0-7.512-3.344-7.512-7.482v-26.476h-482.008v282.732c0 4.139-3.345 7.512-7.483 7.512-4.139 0-7.512-3.373-7.512-7.512v-347.305c-.001-4.139 3.372-7.514 7.511-7.514zm310.737 131.416c4.139 0 7.484 3.344 7.484 7.482 0 3.375 1.389 6.406 3.6 8.646 2.24 2.211 5.301 3.6 8.646 3.6s6.406-1.389 8.645-3.6c2.211-2.24 3.6-5.271 3.6-8.646v-26.135h-103.408v35.859c0 3.344 1.389 6.406 3.6 8.617 2.211 2.238 5.272 3.6 8.645 3.6 3.345 0 6.406-1.361 8.617-3.6 2.296-2.297 3.6-5.387 3.6-8.617 0-4.139 3.373-7.514 7.512-7.514 4.11 0 7.54 3.402 7.483 7.514v14.541c0 3.373 1.389 6.434 3.6 8.646 2.239 2.211 5.273 3.6 8.646 3.6 3.345 0 6.406-1.389 8.618-3.6 2.239-2.213 3.6-5.273 3.6-8.646v-24.264c.001-4.139 3.374-7.483 7.512-7.483zm-171.866 139.75c4.167 0 7.512 3.344 7.512 7.512 0 3.346 1.389 6.406 3.6 8.617s5.272 3.6 8.645 3.6c3.345 0 6.406-1.389 8.618-3.6 2.211-2.211 3.6-5.272 3.6-8.617v-60.123h-103.381v94.082c0 3.346 1.361 6.406 3.572 8.647 2.239 2.211 5.301 3.6 8.646 3.6s6.406-1.389 8.646-3.6c2.296-2.297 3.6-5.387 3.6-8.647 0-4.139 3.345-7.484 7.483-7.484 4.139 0 7.513 3.346 7.513 7.484v58.254c0 3.344 1.36 6.406 3.6 8.617 2.211 2.238 5.272 3.6 8.617 3.6 3.373 0 6.435-1.361 8.646-3.6 2.211-2.211 3.6-5.273 3.6-8.617v-92.213c-.001-4.168 3.344-7.512 7.483-7.512zm126.398-99.072c-4.025 2.381-8.731 3.742-13.72 3.742-7.512 0-14.315-3.061-19.247-7.994-4.933-4.934-7.995-11.736-7.995-19.219v-35.859h-68.23c-4.139 0-7.512-3.344-7.512-7.482 0-4.139 3.374-7.512 7.512-7.512h266.913c4.167 0 7.512 3.373 7.512 7.512v45.383h7.653c8.334 0 15.931 3.4 21.402 8.9 5.499 5.498 8.901 13.068 8.901 21.402v45.609c0 8.334-3.402 15.932-8.901 21.402-5.5 5.498-13.068 8.9-21.402 8.9h-174.19c-4.224 0-8.05 1.729-10.828 4.508-2.778 2.777-4.507 6.604-4.507 10.799v38.098h4.848c8.079 0 15.421 3.316 20.722 8.617 5.301 5.33 8.617 12.643 8.617 20.723v75.658h206.676v-282.76c0-4.139 3.374-7.484 7.512-7.484s7.483 3.346 7.483 7.484v290.242c0 4.168-3.345 7.514-7.483 7.514-165.688 0-331.346 0-497.004 0-4.139 0-7.512-3.346-7.512-7.514v-33.959c0-4.139 3.373-7.512 7.512-7.512 4.138 0 7.483 3.373 7.483 7.512v26.477h191.993c0-25.229 0-50.43 0-75.658 0-8.08 3.288-15.393 8.617-20.723 5.301-5.301 12.642-8.617 20.721-8.617h4.819v-38.098c0-8.334 3.43-15.902 8.901-21.402 5.499-5.498 13.068-8.9 21.43-8.9h174.191c4.196 0 8.023-1.729 10.801-4.506 2.778-2.779 4.507-6.605 4.507-10.801v-45.609c0-4.195-1.729-8.021-4.507-10.801-2.778-2.779-6.605-4.508-10.801-4.508h-7.653v45.385c0 4.166-3.345 7.512-7.512 7.512h-115.004c-4.138 0-7.512-3.346-7.512-7.512 0-4.139 3.373-7.484 7.512-7.484h107.52v-90.795h-57.799v26.135c0 7.512-3.062 14.316-7.994 19.248s-11.764 7.994-19.247 7.994c-4.394 0-8.561-1.049-12.246-2.92 0 7.482-3.061 14.26-7.994 19.191-4.933 4.932-11.736 7.994-19.219 7.994-7.512 0-14.315-3.063-19.247-7.994-2.863-2.863-5.103-6.377-6.492-10.318zm-173.341 164.863c-3.685 1.871-7.852 2.92-12.246 2.92-7.483 0-14.315-3.061-19.247-7.992-4.933-4.934-7.994-11.736-7.994-19.248v-119.254h-3.43c-7.115 0-13.578-2.92-18.255-7.598-4.649-4.648-7.569-11.111-7.569-18.229v-18.793c0-7.115 2.92-13.549 7.569-18.227 4.677-4.678 11.14-7.598 18.255-7.598h3.43v-17.658c0-4.139 3.373-7.512 7.512-7.512h62.136c4.139 0 7.512 3.373 7.512 7.512s-3.374 7.482-7.512 7.482h-54.624v90.795h110.893 95.67c4.139 0 7.483 3.346 7.483 7.484 0 4.166-3.345 7.512-7.483 7.512h-88.186v60.123c0 7.482-3.062 14.287-7.994 19.219-4.933 4.932-11.736 7.994-19.219 7.994-4.393 0-8.561-1.049-12.246-2.92v67.92c0 7.482-3.062 14.285-7.994 19.219-4.932 4.932-11.735 7.992-19.247 7.992-7.483 0-14.287-3.061-19.219-7.992-4.933-4.934-7.994-11.736-7.994-19.219v-33.932zm175.892 10.35v-7.684c0-3.912-1.615-7.512-4.224-10.121-2.607-2.607-6.179-4.223-10.119-4.223h-12.331-12.331c-3.94 0-7.512 1.615-10.12 4.223-2.608 2.609-4.224 6.209-4.224 10.121v7.684zm0 67.975v-52.98h-53.348v52.98zm-215.378-277.346h-3.43c-2.976 0-5.669 1.248-7.625 3.203-1.984 1.955-3.203 4.648-3.203 7.625v18.793c0 2.977 1.219 5.672 3.203 7.627 1.956 1.984 4.649 3.203 7.625 3.203h3.43zm413.437-109.391c4.139 0 7.484 3.346 7.484 7.484 0 4.166-3.345 7.512-7.484 7.512h-17.915c-4.139 0-7.513-3.346-7.513-7.512 0-4.139 3.374-7.484 7.513-7.484zm-94.082 0c4.167 0 7.512 3.346 7.512 7.484 0 4.166-3.345 7.512-7.512 7.512h-17.887c-4.167 0-7.512-3.346-7.512-7.512 0-4.139 3.345-7.484 7.512-7.484zm47.055 0c4.139 0 7.483 3.346 7.483 7.484 0 4.166-3.345 7.512-7.483 7.512h-17.915c-4.139 0-7.512-3.346-7.512-7.512 0-4.139 3.373-7.484 7.512-7.484zm70.64-13.549h-482.008v42.094h482.009v-42.094z" fill="#430297" data-original="#000000" style="" class=""/></g></g></svg>
