<?xml version="1.0"?>
<svg xmlns="http://www.w3.org/2000/svg" xmlns:xlink="http://www.w3.org/1999/xlink" xmlns:svgjs="http://svgjs.com/svgjs" version="1.1" width="512" height="512" x="0" y="0" viewBox="0 0 512.004 512.004" style="enable-background:new 0 0 512 512" xml:space="preserve" class=""><g><g xmlns="http://www.w3.org/2000/svg"><path d="m467.699 55.092h-41.247c0-17.096 0-28.63 0-43.596 0-6.339-5.157-11.496-11.496-11.496-11.369 0-306.22 0-317.908 0-6.339 0-11.496 5.157-11.496 11.496v43.596h-41.246c-19.449 0-35.272 15.823-35.272 35.272v287.163c0 19.449 15.823 35.271 35.272 35.271h159.346v20.713c0 8.715-4.191 16.926-10.939 21.427l-17.995 12.003h-14.278c-9.448 0-17.136 7.688-17.136 17.137v10.789c0 9.449 7.688 17.137 17.136 17.137h78.063c4.143 0 7.5-3.357 7.5-7.5s-3.357-7.5-7.5-7.5h-78.063c-1.178 0-2.136-.959-2.136-2.137v-10.789c0-1.178.958-2.137 2.136-2.137h191.125c1.178 0 2.137.959 2.137 2.137v10.789c0 1.178-.959 2.137-2.137 2.137h-78.063c-4.143 0-7.5 3.357-7.5 7.5s3.357 7.5 7.5 7.5h78.063c9.449 0 17.137-7.688 17.137-17.137v-10.789c0-9.449-7.688-17.137-17.137-17.137h-14.278l-17.995-12.003c-6.748-4.501-10.939-12.712-10.939-21.427v-20.713h159.347c19.449 0 35.271-15.822 35.271-35.271v-287.163c0-19.449-15.823-35.272-35.272-35.272zm-323.75-40.092h267.503v20.74h-267.503zm-43.397 0h28.397v20.74h-28.397zm0 35.74h310.9v316.997h-310.9c0-18.01 0-299.296 0-316.997zm209.719 416.201h-108.539c10.609-7.421 16.919-19.853 16.919-33.43v-20.713h74.701v20.713c.001 13.578 6.309 26.01 16.919 33.43zm177.7-89.414c0 11.178-9.094 20.271-20.271 20.271-11.477 0-412.364 0-423.394 0-11.179 0-20.272-9.094-20.272-20.271v-287.163c0-11.179 9.094-20.272 20.272-20.272h41.246v15.063h-34.961c-6.339 0-11.495 5.157-11.495 11.496v274.591c0 6.339 5.156 11.496 11.495 11.496h410.822c6.339 0 11.496-5.157 11.496-11.496v-119.797c0-4.143-3.357-7.5-7.5-7.5s-7.5 3.357-7.5 7.5v116.292h-31.457v-267.583h31.457v116.291c0 4.143 3.357 7.5 7.5 7.5s7.5-3.357 7.5-7.5v-119.796c0-6.339-5.157-11.495-11.496-11.495h-34.961v-15.062h41.247c11.178 0 20.271 9.094 20.271 20.272v287.163zm-402.419-277.373v267.583h-31.456v-267.583z" fill="#430297" data-original="#000000" style="" class=""/><path d="m318.072 203.314c-3.861-3.86-8.797-6.25-14.13-6.905l23.42-23.42c16.813 3.41 34.75-1.257 47.844-14.348 12.63-12.631 17.968-30.623 14.278-48.13-1.886-8.955-12.991-12.274-19.469-5.792l-26.689 26.688-11.68-3.13-3.13-11.68 27.056-27.056c6.409-6.411 3.234-17.363-5.599-19.423-18.476-4.311-37.94 1.688-50.795 15.658-11.734 12.752-15.967 30.09-12.732 46.163l-37.991 37.99c-10.161-10.161-73.354-73.354-81.419-81.419-7.801-7.8-20.586-7.81-28.398 0-7.829 7.83-7.829 20.568 0 28.398l81.419 81.419-40.13 40.13c-38.237-7.694-70.424 26.651-61.82 63.527 2.062 8.845 13.02 12.001 19.422 5.6l27.057-27.056 11.68 3.13 3.13 11.68-26.688 26.688c-6.472 6.474-3.176 17.581 5.792 19.47h-.001c36.771 7.749 70.113-24.512 62.479-62.123l25.559-25.559c.655 5.334 3.044 10.269 6.905 14.13l70.112 70.112c9.45 9.448 24.815 9.438 34.257 0 26.095-26.095 28.412-28.412 30.375-30.376 9.443-9.444 9.443-24.812 0-34.256zm-7.856-107.379c7.8-8.475 18.867-12.739 29.884-12.133l-23.836 23.836c-2.763 2.764-3.851 6.824-2.838 10.594l4.334 16.177c1.011 3.774 3.982 6.746 7.755 7.756l16.181 4.336c3.768 1.008 7.83-.078 10.591-2.839l23.324-23.323c.304 10.277-3.596 20.28-11.011 27.696-14.173 14.173-36.168 14.453-50.731 2.305-16.61-13.818-17.995-38.818-3.653-54.405zm-18.039 51.489c4.548 8.047 11.576 15.117 19.753 19.784l-26.021 26.021-7.271-7.27c-4.737-4.738-11.705-5.672-17.268-3.111l-2.309-2.309zm-137.142-35.332-5.79-5.79c-2.015-2.015-1.931-5.253 0-7.184 1.956-1.958 5.189-1.998 7.184 0l5.79 5.79zm13.289 215.532 23.323-23.323c2.763-2.764 3.85-6.824 2.838-10.595l-4.334-16.176c-1.011-3.774-3.982-6.746-7.755-7.756l-16.175-4.335c-3.774-1.012-7.834.075-10.597 2.838l-23.837 23.836c-1.852-33.568 38.209-52.831 63.122-29.833.005.005.011.01.017.015 0 0 0 0 .001.001 25.515 23.602 8.091 66.333-26.603 65.328zm46.87-63.681c-4.779-8.375-11.926-15.311-19.784-19.753l35.253-35.254 2.316 2.316c-2.615 5.709-1.469 12.686 3.104 17.261l7.271 7.271zm27.712-63.98c-3.395-3.395-73.87-73.87-77.264-77.264l7.184-7.184c3.396 3.396 73.87 73.87 77.264 77.264zm14.795 28.953-11.011-11.01c-.142-.142-.142-.373 0-.514 2-2 18.446-18.446 20.828-20.828.14-.145.372-.145.513 0l11.011 11.011c.142.141.142.371 0 .512l-20.829 20.829c-.141.143-.371.143-.512 0zm89.502 98.535c-3.597 3.595-9.448 3.597-13.043 0l-70.112-70.112c-3.605-3.605-3.607-9.437 0-13.042l.988-.988 83.155 83.155zm11.595-11.595-83.155-83.155 7.185-7.185 83.155 83.155zm18.779-18.78-.988.988-83.154-83.154.988-.988c0-.001 0-.001 0-.001 3.605-3.605 9.437-3.604 13.042.001l70.112 70.112c3.596 3.596 3.596 9.446 0 13.042z" fill="#430297" data-original="#000000" style="" class=""/></g></g></svg>
